<svg width="60" height="60" viewBox="0 0 60 60" fill="none" xmlns="http://www.w3.org/2000/svg">
  <rect width="60" height="60" rx="8" fill="url(#paint0_linear_1_56)" fill-opacity="0.1"/>
  <path d="M15 50V15C15 14.0717 15.3687 13.1815 16.0251 12.5251C16.6815 11.8687 17.5717 11.5 18.5 11.5H41.5C42.4283 11.5 43.3185 11.8687 43.9749 12.5251C44.6313 13.1815 45 14.0717 45 15V50" stroke="url(#paint1_linear_1_56)" stroke-width="3" stroke-linecap="round" stroke-linejoin="round"/>
  <path d="M10 50H50" stroke="url(#paint2_linear_1_56)" stroke-width="3" stroke-linecap="round" stroke-linejoin="round"/>
  <path d="M25 50V40C25 39.4696 25.2107 38.9609 25.5858 38.5858C25.9609 38.2107 26.4696 38 27 38H33C33.5304 38 34.0391 38.2107 34.4142 38.5858C34.7893 38.9609 35 39.4696 35 40V50" stroke="url(#paint3_linear_1_56)" stroke-width="3" stroke-linecap="round" stroke-linejoin="round"/>
  <path d="M25 27.5H35" stroke="url(#paint4_linear_1_56)" stroke-width="3" stroke-linecap="round" stroke-linejoin="round"/>
  <path d="M30 22.5V32.5" stroke="url(#paint5_linear_1_56)" stroke-width="3" stroke-linecap="round" stroke-linejoin="round"/>
  <defs>
    <linearGradient id="paint0_linear_1_56" x1="0" y1="0" x2="60" y2="60" gradientUnits="userSpaceOnUse">
      <stop stop-color="#0055FF"/>
      <stop offset="1" stop-color="#8C54FF"/>
    </linearGradient>
    <linearGradient id="paint1_linear_1_56" x1="15" y1="11.5" x2="45" y2="50" gradientUnits="userSpaceOnUse">
      <stop stop-color="#0055FF"/>
      <stop offset="1" stop-color="#8C54FF"/>
    </linearGradient>
    <linearGradient id="paint2_linear_1_56" x1="10" y1="50" x2="50" y2="50" gradientUnits="userSpaceOnUse">
      <stop stop-color="#0055FF"/>
      <stop offset="1" stop-color="#8C54FF"/>
    </linearGradient>
    <linearGradient id="paint3_linear_1_56" x1="25" y1="38" x2="35" y2="50" gradientUnits="userSpaceOnUse">
      <stop stop-color="#0055FF"/>
      <stop offset="1" stop-color="#8C54FF"/>
    </linearGradient>
    <linearGradient id="paint4_linear_1_56" x1="25" y1="27.5" x2="35" y2="27.5" gradientUnits="userSpaceOnUse">
      <stop stop-color="#0055FF"/>
      <stop offset="1" stop-color="#8C54FF"/>
    </linearGradient>
    <linearGradient id="paint5_linear_1_56" x1="30" y1="22.5" x2="31" y2="32.5" gradientUnits="userSpaceOnUse">
      <stop stop-color="#0055FF"/>
      <stop offset="1" stop-color="#8C54FF"/>
    </linearGradient>
  </defs>
</svg>