<svg width="60" height="60" viewBox="0 0 60 60" fill="none" xmlns="http://www.w3.org/2000/svg">
  <rect width="60" height="60" rx="8" fill="url(#paint0_linear_1_60)" fill-opacity="0.1"/>
  <path d="M45 22.5V15C45 13.6193 43.8807 12.5 42.5 12.5H17.5C16.1193 12.5 15 13.6193 15 15V22.5" stroke="url(#paint1_linear_1_60)" stroke-width="3" stroke-linecap="round" stroke-linejoin="round"/>
  <path d="M48.3893 27.5C47.628 25.6429 45.8192 24.375 43.75 24.375H16.25C14.1808 24.375 12.372 25.6429 11.6107 27.5L10 33.75V45C10 46.3807 11.1193 47.5 12.5 47.5H15C16.3807 47.5 17.5 46.3807 17.5 45V42.5H42.5V45C42.5 46.3807 43.6193 47.5 45 47.5H47.5C48.8807 47.5 50 46.3807 50 45V33.75L48.3893 27.5Z" stroke="url(#paint2_linear_1_60)" stroke-width="3" stroke-linecap="round" stroke-linejoin="round"/>
  <path d="M17.5 37.5C19.5711 37.5 21.25 35.8211 21.25 33.75C21.25 31.6789 19.5711 30 17.5 30C15.4289 30 13.75 31.6789 13.75 33.75C13.75 35.8211 15.4289 37.5 17.5 37.5Z" stroke="url(#paint3_linear_1_60)" stroke-width="3" stroke-linecap="round" stroke-linejoin="round"/>
  <path d="M42.5 37.5C44.5711 37.5 46.25 35.8211 46.25 33.75C46.25 31.6789 44.5711 30 42.5 30C40.4289 30 38.75 31.6789 38.75 33.75C38.75 35.8211 40.4289 37.5 42.5 37.5Z" stroke="url(#paint4_linear_1_60)" stroke-width="3" stroke-linecap="round" stroke-linejoin="round"/>
  <path d="M30 17.5V20" stroke="url(#paint5_linear_1_60)" stroke-width="3" stroke-linecap="round" stroke-linejoin="round"/>
  <path d="M25 17.5H35" stroke="url(#paint6_linear_1_60)" stroke-width="3" stroke-linecap="round" stroke-linejoin="round"/>
  <defs>
    <linearGradient id="paint0_linear_1_60" x1="0" y1="0" x2="60" y2="60" gradientUnits="userSpaceOnUse">
      <stop stop-color="#0055FF"/>
      <stop offset="1" stop-color="#8C54FF"/>
    </linearGradient>
    <linearGradient id="paint1_linear_1_60" x1="15" y1="12.5" x2="45" y2="22.5" gradientUnits="userSpaceOnUse">
      <stop stop-color="#0055FF"/>
      <stop offset="1" stop-color="#8C54FF"/>
    </linearGradient>
    <linearGradient id="paint2_linear_1_60" x1="10" y1="24.375" x2="50" y2="47.5" gradientUnits="userSpaceOnUse">
      <stop stop-color="#0055FF"/>
      <stop offset="1" stop-color="#8C54FF"/>
    </linearGradient>
    <linearGradient id="paint3_linear_1_60" x1="13.75" y1="30" x2="21.25" y2="37.5" gradientUnits="userSpaceOnUse">
      <stop stop-color="#0055FF"/>
      <stop offset="1" stop-color="#8C54FF"/>
    </linearGradient>
    <linearGradient id="paint4_linear_1_60" x1="38.75" y1="30" x2="46.25" y2="37.5" gradientUnits="userSpaceOnUse">
      <stop stop-color="#0055FF"/>
      <stop offset="1" stop-color="#8C54FF"/>
    </linearGradient>
    <linearGradient id="paint5_linear_1_60" x1="30" y1="17.5" x2="31" y2="20" gradientUnits="userSpaceOnUse">
      <stop stop-color="#0055FF"/>
      <stop offset="1" stop-color="#8C54FF"/>
    </linearGradient>
    <linearGradient id="paint6_linear_1_60" x1="25" y1="17.5" x2="35" y2="17.5" gradientUnits="userSpaceOnUse">
      <stop stop-color="#0055FF"/>
      <stop offset="1" stop-color="#8C54FF"/>
    </linearGradient>
  </defs>
</svg>