<svg width="60" height="60" viewBox="0 0 60 60" fill="none" xmlns="http://www.w3.org/2000/svg">
  <rect width="60" height="60" rx="8" fill="url(#paint0_linear_1_61)" fill-opacity="0.1"/>
  <path d="M15 20C15 17.2386 17.2386 15 20 15C22.7614 15 25 17.2386 25 20C25 28.125 15 28.125 15 20Z" stroke="url(#paint1_linear_1_61)" stroke-width="3" stroke-linecap="round" stroke-linejoin="round"/>
  <path d="M35 20C35 17.2386 37.2386 15 40 15C42.7614 15 45 17.2386 45 20C45 28.125 35 28.125 35 20Z" stroke="url(#paint2_linear_1_61)" stroke-width="3" stroke-linecap="round" stroke-linejoin="round"/>
  <path d="M30 32.5C30 29.7386 32.2386 27.5 35 27.5C37.7614 27.5 40 29.7386 40 32.5C40 40.625 30 40.625 30 32.5Z" stroke="url(#paint3_linear_1_61)" stroke-width="3" stroke-linecap="round" stroke-linejoin="round"/>
  <path d="M20 32.5C20 29.7386 22.2386 27.5 25 27.5C27.7614 27.5 30 29.7386 30 32.5C30 40.625 20 40.625 20 32.5Z" stroke="url(#paint4_linear_1_61)" stroke-width="3" stroke-linecap="round" stroke-linejoin="round"/>
  <path d="M17.5 45C17.5 42.2386 19.7386 40 22.5 40C25.2614 40 27.5 42.2386 27.5 45C27.5 47.7614 25.2614 50 22.5 50C19.7386 50 17.5 47.7614 17.5 45Z" stroke="url(#paint5_linear_1_61)" stroke-width="3" stroke-linecap="round" stroke-linejoin="round"/>
  <path d="M32.5 45C32.5 42.2386 34.7386 40 37.5 40C40.2614 40 42.5 42.2386 42.5 45C42.5 47.7614 40.2614 50 37.5 50C34.7386 50 32.5 47.7614 32.5 45Z" stroke="url(#paint6_linear_1_61)" stroke-width="3" stroke-linecap="round" stroke-linejoin="round"/>
  <defs>
    <linearGradient id="paint0_linear_1_61" x1="0" y1="0" x2="60" y2="60" gradientUnits="userSpaceOnUse">
      <stop stop-color="#0055FF"/>
      <stop offset="1" stop-color="#8C54FF"/>
    </linearGradient>
    <linearGradient id="paint1_linear_1_61" x1="15" y1="15" x2="25" y2="28.125" gradientUnits="userSpaceOnUse">
      <stop stop-color="#0055FF"/>
      <stop offset="1" stop-color="#8C54FF"/>
    </linearGradient>
    <linearGradient id="paint2_linear_1_61" x1="35" y1="15" x2="45" y2="28.125" gradientUnits="userSpaceOnUse">
      <stop stop-color="#0055FF"/>
      <stop offset="1" stop-color="#8C54FF"/>
    </linearGradient>
    <linearGradient id="paint3_linear_1_61" x1="30" y1="27.5" x2="40" y2="40.625" gradientUnits="userSpaceOnUse">
      <stop stop-color="#0055FF"/>
      <stop offset="1" stop-color="#8C54FF"/>
    </linearGradient>
    <linearGradient id="paint4_linear_1_61" x1="20" y1="27.5" x2="30" y2="40.625" gradientUnits="userSpaceOnUse">
      <stop stop-color="#0055FF"/>
      <stop offset="1" stop-color="#8C54FF"/>
    </linearGradient>
    <linearGradient id="paint5_linear_1_61" x1="17.5" y1="40" x2="27.5" y2="50" gradientUnits="userSpaceOnUse">
      <stop stop-color="#0055FF"/>
      <stop offset="1" stop-color="#8C54FF"/>
    </linearGradient>
    <linearGradient id="paint6_linear_1_61" x1="32.5" y1="40" x2="42.5" y2="50" gradientUnits="userSpaceOnUse">
      <stop stop-color="#0055FF"/>
      <stop offset="1" stop-color="#8C54FF"/>
    </linearGradient>
  </defs>
</svg>