<svg width="24" height="24" viewBox="0 0 24 24" fill="none" xmlns="http://www.w3.org/2000/svg">
  <g clip-path="url(#clip0_1_45)">
    <path d="M0 6C0 4.89543 0.895431 4 2 4H22C23.1046 4 24 4.89543 24 6V18C24 19.1046 23.1046 20 22 20H2C0.895431 20 0 19.1046 0 18V6Z" fill="#C60B1E"/>
    <path d="M0 8H24V16H0V8Z" fill="#FFC400"/>
    <path d="M6 12C6 12 6.5 13 8 13C9.5 13 10 12 10 12C10 12 9.5 11 8 11C6.5 11 6 12 6 12Z" fill="#C60B1E"/>
  </g>
  <defs>
    <clipPath id="clip0_1_45">
      <rect width="24" height="24" rx="12" fill="white"/>
    </clipPath>
  </defs>
</svg>