<svg width="80" height="80" viewBox="0 0 80 80" fill="none" xmlns="http://www.w3.org/2000/svg">
  <rect width="80" height="80" rx="10" fill="url(#paint0_linear_1_51)" fill-opacity="0.1"/>
  <path d="M40 15C26.1929 15 15 26.1929 15 40C15 53.8071 26.1929 65 40 65C53.8071 65 65 53.8071 65 40C65 26.1929 53.8071 15 40 15ZM40 60C29.0075 60 20 50.9925 20 40C20 29.0075 29.0075 20 40 20C50.9925 20 60 29.0075 60 40C60 50.9925 50.9925 60 40 60Z" fill="url(#paint1_linear_1_51)"/>
  <path d="M42.5 25H37.5V35H27.5V40H37.5V55H42.5V40H52.5V35H42.5V25Z" fill="url(#paint2_linear_1_51)"/>
  <defs>
    <linearGradient id="paint0_linear_1_51" x1="0" y1="0" x2="80" y2="80" gradientUnits="userSpaceOnUse">
      <stop stop-color="#0055FF"/>
      <stop offset="1" stop-color="#8C54FF"/>
    </linearGradient>
    <linearGradient id="paint1_linear_1_51" x1="15" y1="15" x2="65" y2="65" gradientUnits="userSpaceOnUse">
      <stop stop-color="#0055FF"/>
      <stop offset="1" stop-color="#8C54FF"/>
    </linearGradient>
    <linearGradient id="paint2_linear_1_51" x1="27.5" y1="25" x2="52.5" y2="55" gradientUnits="userSpaceOnUse">
      <stop stop-color="#0055FF"/>
      <stop offset="1" stop-color="#8C54FF"/>
    </linearGradient>
  </defs>
</svg>