<svg width="80" height="80" viewBox="0 0 80 80" fill="none" xmlns="http://www.w3.org/2000/svg">
  <rect width="80" height="80" rx="10" fill="url(#paint0_linear_1_52)" fill-opacity="0.1"/>
  <path d="M58 40C58 49.9411 49.9411 58 40 58C30.0589 58 22 49.9411 22 40C22 30.0589 30.0589 22 40 22C49.9411 22 58 30.0589 58 40Z" stroke="url(#paint1_linear_1_52)" stroke-width="3"/>
  <path d="M50 40C50 45.5228 45.5228 50 40 50C34.4772 50 30 45.5228 30 40C30 34.4772 34.4772 30 40 30C45.5228 30 50 34.4772 50 40Z" stroke="url(#paint2_linear_1_52)" stroke-width="3"/>
  <path d="M47.5 33L40 40L33 32" stroke="url(#paint3_linear_1_52)" stroke-width="3" stroke-linecap="round" stroke-linejoin="round"/>
  <path d="M40 40L34.5 47" stroke="url(#paint4_linear_1_52)" stroke-width="3" stroke-linecap="round" stroke-linejoin="round"/>
  <defs>
    <linearGradient id="paint0_linear_1_52" x1="0" y1="0" x2="80" y2="80" gradientUnits="userSpaceOnUse">
      <stop stop-color="#0055FF"/>
      <stop offset="1" stop-color="#8C54FF"/>
    </linearGradient>
    <linearGradient id="paint1_linear_1_52" x1="22" y1="22" x2="58" y2="58" gradientUnits="userSpaceOnUse">
      <stop stop-color="#0055FF"/>
      <stop offset="1" stop-color="#8C54FF"/>
    </linearGradient>
    <linearGradient id="paint2_linear_1_52" x1="30" y1="30" x2="50" y2="50" gradientUnits="userSpaceOnUse">
      <stop stop-color="#0055FF"/>
      <stop offset="1" stop-color="#8C54FF"/>
    </linearGradient>
    <linearGradient id="paint3_linear_1_52" x1="33" y1="32" x2="47.5" y2="33" gradientUnits="userSpaceOnUse">
      <stop stop-color="#0055FF"/>
      <stop offset="1" stop-color="#8C54FF"/>
    </linearGradient>
    <linearGradient id="paint4_linear_1_52" x1="34.5" y1="40" x2="40" y2="47" gradientUnits="userSpaceOnUse">
      <stop stop-color="#0055FF"/>
      <stop offset="1" stop-color="#8C54FF"/>
    </linearGradient>
  </defs>
</svg>