<svg width="240" height="60" viewBox="0 0 240 60" fill="none" xmlns="http://www.w3.org/2000/svg">
  <path d="M34.5 12C21.5213 12 11 22.5213 11 35.5C11 48.4787 21.5213 59 34.5 59C47.4787 59 58 48.4787 58 35.5C58 22.5213 47.4787 12 34.5 12Z" fill="#FFFFFF"/>
  <path d="M34.5 16C23.7304 16 15 24.7304 15 35.5C15 46.2696 23.7304 55 34.5 55C45.2696 55 54 46.2696 54 35.5C54 24.7304 45.2696 16 34.5 16Z" fill="#0055FF"/>
  <path d="M34.5 20C25.9396 20 19 26.9396 19 35.5C19 44.0604 25.9396 51 34.5 51C43.0604 51 50 44.0604 50 35.5C50 26.9396 43.0604 20 34.5 20Z" fill="#FFFFFF"/>
  <path d="M34.5 24C28.1487 24 23 29.1487 23 35.5C23 41.8513 28.1487 47 34.5 47C40.8513 47 46 41.8513 46 35.5C46 29.1487 40.8513 24 34.5 24Z" fill="#0055FF"/>
  <path d="M38 32L34.5 28L31 32" stroke="#FFFFFF" stroke-width="2" stroke-linecap="round" stroke-linejoin="round"/>
  <path d="M34.5 28V43" stroke="#FFFFFF" stroke-width="2" stroke-linecap="round" stroke-linejoin="round"/>
  <path d="M77.848 31.608H68.696V27.576H91.72V31.608H82.568V47H77.848V31.608Z" fill="#FFFFFF"/>
  <path d="M94.0726 27.576H98.7926V38.616C98.7926 40.232 99.1366 41.464 99.8246 42.312C100.513 43.16 101.497 43.584 102.777 43.584C104.057 43.584 105.033 43.16 105.705 42.312C106.393 41.464 106.737 40.232 106.737 38.616V27.576H111.457V38.616C111.457 40.584 111.049 42.264 110.233 43.656C109.433 45.032 108.337 46.064 106.945 46.752C105.553 47.424 104.041 47.76 102.409 47.76C100.777 47.76 99.3126 47.416 98.0166 46.728C96.7366 46.04 95.7286 45 94.9926 43.608C94.2726 42.216 93.9126 40.552 93.9126 38.616V27.576H94.0726Z" fill="#FFFFFF"/>
  <path d="M125.534 47L120.334 38.328H117.398V47H112.678V27.576H121.854C123.534 27.576 124.974 27.864 126.174 28.44C127.39 29.016 128.31 29.808 128.934 30.816C129.558 31.824 129.87 32.984 129.87 34.296C129.87 35.816 129.422 37.128 128.526 38.232C127.646 39.336 126.358 40.088 124.662 40.488L130.31 47H125.534ZM117.398 34.896H121.614C122.734 34.896 123.566 34.64 124.11 34.128C124.654 33.6 124.926 32.856 124.926 31.896C124.926 30.968 124.654 30.24 124.11 29.712C123.566 29.184 122.734 28.92 121.614 28.92H117.398V34.896Z" fill="#FFFFFF"/>
  <path d="M133.99 27.576H138.71V42.744H148.75V47H133.99V27.576Z" fill="#FFFFFF"/>
  <path d="M165.654 38.568H150.822C150.918 39.848 151.398 40.84 152.262 41.544C153.126 42.248 154.214 42.6 155.526 42.6C157.398 42.6 158.742 41.888 159.558 40.464H165.222C164.646 42.304 163.51 43.824 161.814 45.024C160.118 46.208 158.046 46.8 155.598 46.8C153.598 46.8 151.806 46.384 150.222 45.552C148.638 44.72 147.39 43.552 146.478 42.048C145.566 40.544 145.11 38.8 145.11 36.816C145.11 34.832 145.558 33.088 146.454 31.584C147.35 30.08 148.582 28.912 150.15 28.08C151.718 27.248 153.51 26.832 155.526 26.832C157.478 26.832 159.222 27.232 160.758 28.032C162.294 28.832 163.502 29.968 164.382 31.44C165.262 32.912 165.702 34.624 165.702 36.576C165.702 37.28 165.686 37.928 165.654 38.52V38.568ZM159.99 35.304C159.99 34.2 159.558 33.32 158.694 32.664C157.83 32.008 156.742 31.68 155.43 31.68C154.166 31.68 153.11 32 152.262 32.64C151.414 33.28 150.886 34.168 150.678 35.304H159.99Z" fill="#FFFFFF"/>
  <path d="M175.819 31.56C176.539 30.136 177.563 29.024 178.891 28.224C180.219 27.424 181.763 27.024 183.523 27.024V32.064H182.115C180.083 32.064 178.571 32.544 177.579 33.504C176.587 34.464 176.091 36.048 176.091 38.256V47.024H171.371V27.336H175.819V31.56Z" fill="#FFFFFF"/>
  <path d="M193.739 47.744C191.755 47.744 189.979 47.336 188.411 46.52C186.843 45.688 185.603 44.52 184.691 43.016C183.779 41.512 183.323 39.784 183.323 37.832C183.323 35.88 183.779 34.152 184.691 32.648C185.603 31.144 186.843 29.976 188.411 29.144C189.979 28.312 191.763 27.896 193.763 27.896C195.763 27.896 197.547 28.312 199.115 29.144C200.683 29.976 201.915 31.144 202.811 32.648C203.707 34.152 204.155 35.88 204.155 37.832C204.155 39.784 203.699 41.512 201.963 43.016C200.955 44.52 199.459 45.688 197.875 46.52C196.291 47.336 195.083 47.744 193.739 47.744ZM193.739 43.096C194.843 43.096 195.835 42.84 196.715 42.328C197.595 41.8 198.291 41.064 198.803 40.12C199.315 39.176 199.571 38.088 199.571 36.856C199.571 35.624 199.315 34.536 198.803 33.592C198.291 32.648 197.595 31.92 196.715 31.408C195.835 30.896 194.843 30.64 193.739 30.64C192.635 30.64 191.627 30.896 190.715 31.408C189.819 31.92 189.107 32.648 188.579 33.592C188.051 34.536 187.787 35.624 187.787 36.856C187.787 38.088 188.051 39.176 188.579 40.12C189.107 41.064 189.819 41.8 190.715 42.328C191.611 42.84 192.635 43.096 193.739 43.096Z" fill="#FFFFFF"/>
  <path d="M213.152 22.376V47H208.432V22.376H213.152Z" fill="#FFFFFF"/>
  <path d="M228.073 47.744C226.089 47.744 224.313 47.336 222.745 46.52C221.177 45.688 219.937 44.52 219.025 43.016C218.113 41.512 217.657 39.784 217.657 37.832C217.657 35.88 218.113 34.152 219.025 32.648C219.937 31.144 221.177 29.976 222.745 29.144C224.313 28.312 226.097 27.896 228.097 27.896C230.097 27.896 231.881 28.312 233.449 29.144C235.017 29.976 236.249 31.144 237.145 32.648C238.041 34.152 238.489 35.88 238.489 37.832C238.489 39.784 238.033 41.512 236.297 43.016C235.289 44.52 233.793 45.688 232.209 46.52C230.625 47.336 229.417 47.744 228.073 47.744ZM228.073 43.096C229.177 43.096 230.169 42.84 231.049 42.328C231.929 41.8 232.625 41.064 233.137 40.12C233.649 39.176 233.905 38.088 233.905 36.856C233.905 35.624 233.649 34.536 233.137 33.592C232.625 32.648 231.929 31.92 231.049 31.408C230.169 30.896 229.177 30.64 228.073 30.64C226.969 30.64 225.961 30.896 225.049 31.408C224.153 31.92 223.441 32.648 222.913 33.592C222.385 34.536 222.121 35.624 222.121 36.856C222.121 38.088 222.385 39.176 222.913 40.12C223.441 41.064 224.153 41.8 225.049 42.328C225.945 42.84 226.969 43.096 228.073 43.096Z" fill="#FFFFFF"/>
</svg>